<?xml version="1.0" ?><svg width="32px" height="32px" viewBox="0 0 32 32" xmlns="http://www.w3.org/2000/svg"><defs><style>.cls-1{fill:#231f20;}</style></defs><g data-name="insert icon" id="insert_icon"><path class="cls-1" d="M28,14H24a1,1,0,0,0,0,2h1.11c-.46,5.05-4.37,9-9.11,9s-8.65-3.95-9.11-9H8a1,1,0,0,0,0-2H4a1,1,0,0,0,0,2h.89C5.37,22.15,10.16,27,16,27s10.63-4.85,11.11-11H28a1,1,0,0,0,0-2Z"/><path class="cls-1" d="M12.06,11h0a1,1,0,0,0,1-1L13,6a1,1,0,0,0-1-1,1,1,0,0,0-1,1l.06,4A1,1,0,0,0,12.06,11Z"/><path class="cls-1" d="M20.06,11h0a1,1,0,0,0,1-1L21,6a1,1,0,0,0-1-1,1,1,0,0,0-1,1l.06,4A1,1,0,0,0,20.06,11Z"/></g></svg>